<mxfile host="65bd71144e">
    <diagram id="pfVdsLULdCBR9uAFdAK5" name="ページ1">
        <mxGraphModel dx="1096" dy="887" grid="1" gridSize="10" guides="1" tooltips="1" connect="1" arrows="1" fold="1" page="1" pageScale="1" pageWidth="827" pageHeight="1169" math="0" shadow="0">
            <root>
                <mxCell id="0"/>
                <mxCell id="1" parent="0"/>
                <mxCell id="2" value="リバーシ&lt;br&gt;アプリケーション" style="whiteSpace=wrap;html=1;aspect=fixed;fillColor=none;verticalAlign=top;" parent="1" vertex="1">
                    <mxGeometry x="140" y="290" width="510" height="510" as="geometry"/>
                </mxCell>
                <mxCell id="9" style="edgeStyle=none;html=1;endArrow=none;endFill=0;" parent="1" source="3" target="6" edge="1">
                    <mxGeometry relative="1" as="geometry"/>
                </mxCell>
                <mxCell id="15" style="edgeStyle=none;shape=connector;rounded=1;html=1;entryX=0;entryY=1;entryDx=0;entryDy=0;strokeColor=default;align=center;verticalAlign=middle;fontFamily=Helvetica;fontSize=11;fontColor=default;labelBackgroundColor=default;endArrow=none;endFill=0;" parent="1" source="3" target="12" edge="1">
                    <mxGeometry relative="1" as="geometry"/>
                </mxCell>
                <mxCell id="16" style="edgeStyle=none;shape=connector;rounded=1;html=1;strokeColor=default;align=center;verticalAlign=middle;fontFamily=Helvetica;fontSize=11;fontColor=default;labelBackgroundColor=default;endArrow=none;endFill=0;" parent="1" source="3" target="13" edge="1">
                    <mxGeometry relative="1" as="geometry"/>
                </mxCell>
                <mxCell id="3" value="プレイヤー" style="shape=umlActor;verticalLabelPosition=bottom;verticalAlign=top;html=1;outlineConnect=0;" parent="1" vertex="1">
                    <mxGeometry x="70" y="480" width="30" height="60" as="geometry"/>
                </mxCell>
                <mxCell id="6" value="対戦する" style="ellipse;whiteSpace=wrap;html=1;fillColor=none;" parent="1" vertex="1">
                    <mxGeometry x="230" y="480" width="120" height="70" as="geometry"/>
                </mxCell>
                <mxCell id="11" style="edgeStyle=none;shape=connector;rounded=1;html=1;strokeColor=default;align=center;verticalAlign=middle;fontFamily=Helvetica;fontSize=11;fontColor=default;labelBackgroundColor=default;endArrow=none;endFill=0;dashed=1;" parent="1" source="10" target="6" edge="1">
                    <mxGeometry relative="1" as="geometry"/>
                </mxCell>
                <mxCell id="10" value="・対戦を開始する&lt;div&gt;・盤面を見る&lt;/div&gt;&lt;div&gt;・石を打つ&lt;/div&gt;&lt;div&gt;・勝敗を確認する&lt;/div&gt;" style="shape=note;whiteSpace=wrap;html=1;backgroundOutline=1;darkOpacity=0.05;fontFamily=Helvetica;fontSize=11;labelBackgroundColor=none;align=left;fillColor=#fff2cc;strokeColor=#d6b656;" parent="1" vertex="1">
                    <mxGeometry x="400" y="360" width="146" height="70" as="geometry"/>
                </mxCell>
                <mxCell id="12" value="会員登録・&lt;div&gt;ログインする&lt;/div&gt;" style="ellipse;whiteSpace=wrap;html=1;fillColor=none;" parent="1" vertex="1">
                    <mxGeometry x="210" y="380" width="128.33" height="70" as="geometry"/>
                </mxCell>
                <mxCell id="13" value="自分の&lt;div&gt;過去の対戦結果を&lt;/div&gt;&lt;div&gt;確認する&lt;/div&gt;" style="ellipse;whiteSpace=wrap;html=1;fillColor=none;" parent="1" vertex="1">
                    <mxGeometry x="225.83" y="560" width="128.33" height="70" as="geometry"/>
                </mxCell>
                <mxCell id="18" value="1人で黒白&lt;br&gt;交互にうつ" style="ellipse;whiteSpace=wrap;html=1;fillColor=none;" parent="1" vertex="1">
                    <mxGeometry x="440" y="480" width="120" height="70" as="geometry"/>
                </mxCell>
                <mxCell id="19" value="コンピューターと&lt;br&gt;対戦する" style="ellipse;whiteSpace=wrap;html=1;fillColor=none;" parent="1" vertex="1">
                    <mxGeometry x="500" y="640" width="120" height="70" as="geometry"/>
                </mxCell>
                <mxCell id="20" value="他のプレイヤー&lt;br&gt;対戦する" style="ellipse;whiteSpace=wrap;html=1;fillColor=none;" parent="1" vertex="1">
                    <mxGeometry x="420" y="700" width="120" height="70" as="geometry"/>
                </mxCell>
                <mxCell id="21" value="Extends" style="endArrow=block;endSize=16;endFill=0;html=1;rounded=1;strokeColor=default;align=center;verticalAlign=middle;fontFamily=Helvetica;fontSize=11;fontColor=default;labelBackgroundColor=default;edgeStyle=none;entryX=1;entryY=0.5;entryDx=0;entryDy=0;exitX=0;exitY=0.5;exitDx=0;exitDy=0;" parent="1" source="18" target="6" edge="1">
                    <mxGeometry width="160" relative="1" as="geometry">
                        <mxPoint x="300" y="530" as="sourcePoint"/>
                        <mxPoint x="460" y="530" as="targetPoint"/>
                    </mxGeometry>
                </mxCell>
                <mxCell id="22" value="Extends" style="endArrow=block;endSize=16;endFill=0;html=1;rounded=1;strokeColor=default;align=center;verticalAlign=middle;fontFamily=Helvetica;fontSize=11;fontColor=default;labelBackgroundColor=default;edgeStyle=none;exitX=0.078;exitY=0.29;exitDx=0;exitDy=0;entryX=0.96;entryY=0.657;entryDx=0;entryDy=0;entryPerimeter=0;exitPerimeter=0;" parent="1" source="19" target="6" edge="1">
                    <mxGeometry width="160" relative="1" as="geometry">
                        <mxPoint x="440" y="610" as="sourcePoint"/>
                        <mxPoint x="350" y="610" as="targetPoint"/>
                    </mxGeometry>
                </mxCell>
                <mxCell id="23" value="Extends" style="endArrow=block;endSize=16;endFill=0;html=1;rounded=1;strokeColor=default;align=center;verticalAlign=middle;fontFamily=Helvetica;fontSize=11;fontColor=default;labelBackgroundColor=default;edgeStyle=none;entryX=0.883;entryY=0.764;entryDx=0;entryDy=0;exitX=0;exitY=0.5;exitDx=0;exitDy=0;entryPerimeter=0;" parent="1" source="20" target="6" edge="1">
                    <mxGeometry width="160" relative="1" as="geometry">
                        <mxPoint x="440" y="695" as="sourcePoint"/>
                        <mxPoint x="350" y="600" as="targetPoint"/>
                    </mxGeometry>
                </mxCell>
                <mxCell id="25" value="プレイヤーの&lt;br&gt;ランキングを確認する" style="ellipse;whiteSpace=wrap;html=1;fillColor=none;" parent="1" vertex="1">
                    <mxGeometry x="230" y="680" width="128.33" height="70" as="geometry"/>
                </mxCell>
                <mxCell id="26" style="edgeStyle=none;shape=connector;rounded=1;html=1;exitX=1;exitY=1;exitDx=0;exitDy=0;exitPerimeter=0;entryX=0.027;entryY=0.412;entryDx=0;entryDy=0;entryPerimeter=0;strokeColor=default;align=center;verticalAlign=middle;fontFamily=Helvetica;fontSize=11;fontColor=default;labelBackgroundColor=default;endArrow=none;endFill=0;" parent="1" source="3" target="25" edge="1">
                    <mxGeometry relative="1" as="geometry"/>
                </mxCell>
                <mxCell id="27" value="" style="rounded=0;whiteSpace=wrap;html=1;fontFamily=Helvetica;fontSize=11;fontColor=default;labelBackgroundColor=default;fillColor=none;strokeColor=#FF0000;strokeWidth=4;" parent="1" vertex="1">
                    <mxGeometry x="220" y="470" width="350" height="170" as="geometry"/>
                </mxCell>
            </root>
        </mxGraphModel>
    </diagram>
</mxfile>